<svg id="canvas" preserveAspectRatio="none" height="auto" xmlns="http://www.w3.org/2000/svg" version="1.1" xmlns:xlink="http://www.w3.org/1999/xlink" viewBox="0 0 1920 1080" width="auto" style="width: auto; height: auto;">
    <path d="M2017.9358149285576 1459.1938150096657C1984.767234532329 1480.933770846318 1948.6917494551417 1492.692153009952 1907.9890324119528 1498.3326362456994C1867.286315368764 1503.9731194814467 1813.1924112775887 1514.2923034085056 1773.7195126694244 1493.0367144241497C1734.2466140612598 1471.7811254397939 1703.0207787776287 1406.470306806171 1671.1516407629656 1370.7991023395646C1639.2825027483027 1335.127897872958 1599.1645527400835 1316.6386007788801 1582.5046845814463 1279.0094876245107C1565.8448164228091 1241.380374470141 1571.2735907095796 1188.2119079224606 1571.1924318111428 1145.024423413347C1571.1112729127058 1101.8369389042334 1564.808062738296 1054.831512978257 1582.0177311908246 1019.8845805698288C1599.2273996433535 984.9376481614004 1644.2821718689308 964.7556444161348 1674.4504425263144 935.342828962777C1704.6187131836982 905.9300135094193 1726.6438834830435 859.2446381770595 1763.0273551351265 843.4076878496821C1799.4108267872093 827.5707375223049 1849.7242393124561 840.2947053301191 1892.7512724388125 840.3211269985128C1935.778305565169 840.3475486669065 1975.1399489268258 826.3974671221151 2021.1895538932645 843.5662178600446C2067.239158859703 860.734968597974 2128.1963591806816 909.6658348168914 2169.048902237444 943.3336314260894C2209.901445294207 977.0014280352872 2252.811598729246 1006.7813506240933 2266.3048122338396 1045.572997515232C2279.7980257384334 1084.3646444063704 2253.3922704572706 1131.4941532690102 2250.0081832650085 1176.0835127729206C2246.6240960727464 1220.6728722768312 2269.8349004928814 1281.1409231298835 2246.0002890802675 1313.1091545386944C2222.1656776676537 1345.0773859475055 2145.0112604812766 1343.545457813958 2107.000514789325 1367.8929012257865C2068.989769097373 1392.2403446376152 2051.1043953247863 1437.4538591730138 2017.9358149285576 1459.1938150096657C1984.767234532329 1480.933770846318 1948.6917494551417 1492.692153009952 1907.9890324119528 1498.3326362456994 " fill="#136d21ff" transform="matrix(-1,1.2246467991473532e-16,-1.2246467991473532e-16,-1,3840.116455078125,2340.8553466796875)"/>
    <path d="M295.0897940732766 1655.4310887389167C249.8442694301848 1660.8648424654095 176.96051378151924 1610.7842695052063 128.53237426006632 1600.9177807294043C80.1042347386134 1591.0512919536022 37.42374563621834 1602.0263387737464 4.520956944558947 1596.232156084105C-28.38183174710045 1590.4379733944636 -40.11063591854409 1587.0985872905662 -68.88435788989008 1566.1526845915557C-97.65807986123608 1545.2067818925452 -151.7954243012098 1513.2725585766307 -168.12137488351703 1470.5567398900416C-184.44732546582426 1427.8409212034526 -166.54913835780937 1358.1396496265097 -166.84006138373348 1309.8577724720212C-167.1309844096576 1261.5758953175327 -182.51259190485584 1219.6178143646366 -169.86691303906167 1180.86547696311C-157.2212341732675 1142.1131395615837 -119.86345880840828 1107.9332641122328 -90.96598818896842 1077.3437480628627C-62.06851756952858 1046.7542320134926 -40.836766600008644 1009.9805555016679 3.517910677577447 997.3283806668895C47.87258795516354 984.6762058321111 122.91207610552141 1000.8185058994825 175.16207547654807 1001.4306990541921C227.41207484757473 1002.0428922089018 282.9006371402752 987.6177841598474 317.0179069037374 1001.0015395951474C351.13517666719963 1014.3852950304474 355.57398685898465 1051.2315437697368 379.8656940573212 1081.7332316659924C404.15740125565776 1112.234919562248 445.7943944055504 1143.5203054498388 462.76815009375696 1184.0116669726806C479.7419057819635 1224.5030284955224 478.5892764316784 1278.7922697515273 481.7082281865604 1324.6814008030428C484.8271799414424 1370.5705318545583 495.09897830103966 1418.7408103538728 481.4818606230491 1459.3464532817738C467.86474294505854 1499.9520962096744 431.0708665435793 1535.6344857942572 400.00552211861725 1568.3152583704477C368.9401776936552 1600.9960309466383 340.3353187163684 1649.997335012424 295.0897940732766 1655.4310887389167C249.8442694301848 1660.8648424654095 176.96051378151924 1610.7842695052063 128.53237426006632 1600.9177807294043 " fill="#136d21ff"/>
    <path d="M1851.2367625957877 112.02184458561283C1812.1659162720052 125.57180413315973 1757.950425399372 107.6166972674597 1713.6871365183406 105.4091050013194C1669.4238476373093 103.20151273517911 1621.498371705155 114.57278403861278 1585.6570293095992 98.77629098877082C1549.8156869140435 82.97979793892887 1528.7786557286122 40.127563908828506 1498.6390821450063 10.630146702267893C1468.4995085614005 -18.86727050429272 1421.3700212659403 -40.728174767092526 1404.819587807964 -78.20821225059251C1388.2691543499877 -115.6882497340925 1399.4238075491396 -170.48901763693084 1399.3364813971486 -214.25007819873213C1399.2491552451577 -258.0111387605334 1386.8908619867912 -306.4432933391076 1404.2956308960177 -340.7745756214002C1421.7003998052442 -375.10585790369277 1471.6088627337806 -390.7034792780346 1503.7650948525074 -420.23777189248773C1535.921326971234 -449.7720645069408 1560.9539974987508 -501.8908287531618 1597.2330236083778 -517.9803313081188C1633.5120497180046 -534.0698338630757 1678.9054279962968 -516.635232969438 1721.439251510269 -516.7747872222295C1763.973075024241 -516.914341475021 1814.784696370265 -533.7718780371721 1852.4359646922107 -518.8176568248678C1890.087233014156 -503.86343561256336 1916.242697956997 -457.9988212851331 1947.346861441942 -427.0494599484034C1978.451024926887 -396.10009861167373 2028.6010756330147 -367.55312217699225 2039.06094560188 -333.1214888044897C2049.520815570745 -298.689855431987 2016.0723289529465 -259.9279968044194 2010.1060812551334 -220.45965971338757C2004.1398335573203 -180.9913226223557 2013.5957705473525 -137.0729674965363 2003.2634594150024 -96.31146625829865C1992.9311482826524 -55.549965020060995 1973.4499972642366 -10.612870757946894 1948.112214461034 24.109347716038315C1922.7744316578314 58.83156619002352 1890.3076089195697 98.47188503806592 1851.2367625957877 112.02184458561283C1812.1659162720052 125.57180413315973 1757.950425399372 107.6166972674597 1713.6871365183406 105.4091050013194 " fill="#136d21ff"/>
</svg>